<?xml version="1.0" encoding="utf-8"?>
<svg viewBox="0 0 1343 679" xmlns="http://www.w3.org/2000/svg">
  <g transform="matrix(0.1, 0, 0, -0.1, 0, 679)" fill="#000000" stroke="none">
    <path d="M2985 6714 c-663 -19 -1354 -115 -1990 -279 -121 -32 -248 -64 -283 -73 -50 -13 -67 -14 -80 -4 -9 6 -37 23 -62 36 -184 97 -416 14 -508 -182 -24 -50 -27 -69 -27 -157 0 -95 2 -103 34 -163 38 -70 125 -155 175 -172 l31 -10 1 -337 c1 -528 47 -943 160 -1423 192 -819 550 -1582 1060 -2261 59 -79 110 -146 113 -149 3 -3 24 -27 46 -55 68 -85 267 -304 376 -415 95 -97 158 -157 294 -280 84 -76 263 -221 394 -319 179 -133 541 -370 541 -354 0 5 -17 19 -38 32 -117 76 -406 304 -577 455 -202 180 -484 466 -645 657 -126 148 -147 175 -240 298 -689 912 -1099 1930 -1234 3061 -33 281 -51 665 -41 903 l7 175 32 6 c44 9 127 67 170 119 64 78 81 129 81 243 l0 101 85 23 c721 196 1308 298 2015 351 235 17 931 23 1162 10 695 -40 1333 -136 1952 -291 107 -27 197 -48 199 -45 5 5 -361 122 -543 174 -467 132 -996 231 -1530 286 -276 28 -830 47 -1130 39z m-2508 -479 c73 -31 113 -92 113 -175 0 -103 -71 -180 -173 -187 -67 -5 -130 26 -171 84 -25 36 -29 52 -29 103 0 51 4 67 29 103 53 76 149 106 231 72z" style="fill: rgb(0, 101, 183);"/>
    <path d="M3110 6009 c-692 -43 -1364 -172 -1905 -364 -110 -39 -104 -38 65 5 740 188 1605 277 2328 240 619 -32 1123 -109 1689 -257 l181 -47 4 -86 c2 -66 9 -96 28 -134 30 -59 96 -119 157 -142 l46 -18 -6 -340 c-6 -318 -13 -419 -47 -656 -57 -393 -185 -844 -348 -1225 -9 -22 -54 -115 -99 -207 -364 -744 -930 -1409 -1616 -1900 -60 -43 -105 -78 -101 -78 23 0 364 229 519 349 392 302 753 684 1024 1081 158 232 343 561 434 775 109 254 186 478 251 725 110 418 149 729 150 1187 l1 302 33 15 c123 59 195 212 158 338 -30 104 -110 184 -215 215 -71 20 -163 7 -222 -31 -47 -32 -58 -32 -161 -2 -354 102 -910 203 -1303 236 -361 30 -757 37 -1045 19z m2728 -378 c44 -22 82 -84 82 -131 0 -47 -42 -114 -84 -134 -46 -22 -91 -20 -142 4 -51 25 -74 68 -74 138 0 40 6 57 27 83 50 59 124 74 191 40z" style="fill: rgb(0, 101, 183);"/>
    <path d="M7945 5598 c-154 -17 -335 -74 -450 -143 -259 -156 -426 -415 -466 -723 -36 -269 68 -574 265 -780 105 -110 297 -225 431 -256 39 -9 79 -19 90 -23 11 -3 223 -9 470 -12 l450 -6 60 -29 c154 -76 239 -243 214 -421 -19 -133 -95 -237 -219 -298 l-65 -32 -757 -3 -758 -2 0 -281 0 -280 788 3 c787 4 787 4 862 27 160 48 307 132 411 234 53 51 131 148 155 192 6 11 22 41 36 66 66 118 102 275 102 439 -1 175 -34 308 -114 457 -98 182 -248 323 -439 411 -160 74 -164 75 -676 81 -452 6 -461 7 -515 29 -100 43 -162 101 -213 202 -30 61 -32 71 -32 170 0 99 2 109 34 174 41 84 105 147 190 189 l66 32 1038 3 1037 3 0 -1356 0 -1355 270 0 270 0 0 1359 c0 748 3 1361 8 1363 4 2 195 1 424 -2 l418 -5 -38 -50 c-136 -183 -239 -401 -293 -620 -110 -449 -26 -933 226 -1315 76 -115 98 -142 195 -244 209 -219 486 -376 769 -436 138 -29 293 -36 754 -32 l407 4 0 258 0 258 -452 5 c-358 4 -468 8 -523 20 -240 53 -422 148 -588 306 -128 122 -190 212 -260 381 -52 125 -71 230 -70 395 0 130 4 164 27 255 97 375 369 660 751 785 l106 35 505 0 504 0 0 291 0 290 -2662 -2 c-1465 -2 -2699 -7 -2743 -11z" style="fill: rgb(0, 101, 183);"/>
    <path d="M3200 5587 c-51 -23 -90 -59 -117 -105 -24 -40 -28 -58 -28 -119 0 -53 -4 -73 -13 -73 -7 0 -15 7 -18 15 -3 8 -27 27 -52 42 -39 23 -59 28 -112 27 -134 0 -224 -88 -238 -232 l-7 -65 -110 -48 c-60 -27 -115 -48 -121 -49 -6 0 -30 17 -53 39 -105 97 -278 72 -355 -52 -60 -98 -42 -215 45 -290 27 -23 49 -45 49 -48 0 -3 -24 -9 -54 -12 -129 -13 -216 -105 -216 -229 0 -66 28 -130 75 -173 l36 -32 -31 -82 c-16 -45 -39 -104 -51 -131 l-21 -50 -55 0 c-137 0 -229 -100 -221 -240 4 -81 40 -140 112 -184 43 -27 57 -30 122 -29 41 0 74 -1 74 -4 0 -3 -14 -23 -31 -44 -34 -43 -59 -113 -59 -163 1 -40 34 -113 68 -149 42 -44 81 -60 161 -66 l74 -6 54 -119 54 -119 -35 -36 c-50 -53 -66 -92 -66 -161 0 -126 86 -217 213 -227 54 -4 69 -1 117 24 34 18 64 43 79 66 34 52 51 48 51 -10 1 -124 103 -223 230 -223 69 0 125 25 168 74 l33 38 118 -46 c64 -25 122 -46 129 -46 8 0 12 -17 12 -47 0 -72 17 -120 58 -165 48 -53 102 -78 172 -78 71 0 126 26 173 81 45 52 61 106 53 177 -7 60 5 68 43 28 36 -39 117 -69 170 -64 120 12 205 98 218 221 l6 54 123 58 124 58 44 -41 c105 -97 261 -78 342 41 67 97 53 207 -36 291 -28 26 -50 50 -50 55 0 5 24 11 54 14 95 10 157 53 195 137 40 88 17 196 -55 260 -33 29 -43 57 -25 76 4 5 26 55 47 112 l39 102 52 0 c208 0 311 255 162 397 -50 47 -101 65 -175 61 -34 -1 -65 0 -68 3 -3 3 10 24 30 47 87 102 75 238 -28 326 -50 43 -106 60 -169 53 l-47 -6 -51 117 c-28 65 -51 122 -51 128 0 6 14 23 31 40 88 82 92 220 10 315 -92 109 -254 106 -348 -7 -41 -48 -53 -48 -53 0 0 124 -103 226 -228 226 -71 0 -115 -17 -161 -61 l-34 -32 -66 23 c-36 13 -95 36 -131 50 l-65 26 -6 68 c-7 86 -42 139 -118 178 -58 31 -143 37 -191 15z m164 -85 c48 -28 69 -66 74 -132 4 -53 1 -65 -22 -101 -32 -47 -76 -69 -141 -69 -56 0 -96 19 -128 62 -49 65 -46 143 7 204 54 63 137 77 210 36z m-438 -222 c123 -60 116 -243 -12 -296 -93 -39 -200 16 -222 113 -32 140 104 246 234 183z m630 -39 c27 -11 81 -31 119 -45 l70 -26 0 -72 c1 -79 13 -112 65 -172 l30 -34 -34 -73 c-42 -91 -75 -163 -161 -349 -37 -80 -79 -170 -93 -200 -109 -239 -121 -260 -142 -260 -11 0 -22 6 -25 13 -2 6 -9 118 -15 247 -6 129 -17 376 -25 549 -9 173 -14 314 -13 315 54 20 148 95 148 117 0 14 23 11 76 -10z m494 -6 c53 -27 82 -79 82 -145 0 -81 -45 -139 -123 -160 -83 -23 -177 32 -198 115 -36 143 107 256 239 190z m-919 -49 c22 -18 60 -39 84 -46 44 -12 45 -14 45 -54 1 -22 5 -124 10 -226 5 -102 14 -284 19 -405 6 -121 13 -267 16 -325 4 -65 2 -99 -3 -90 -5 8 -46 114 -90 235 -44 121 -117 319 -161 439 l-81 220 34 30 c54 51 80 111 81 189 0 37 2 67 3 67 2 0 22 -15 43 -34z m1397 -103 c100 -75 86 -229 -26 -284 -106 -52 -220 15 -230 134 -6 70 15 114 71 151 36 24 50 27 100 24 37 -3 67 -11 85 -25z m-1849 -98 c44 -49 104 -77 169 -79 l54 -2 68 -184 c127 -347 199 -545 234 -639 26 -71 33 -98 24 -108 -6 -7 -13 -13 -17 -13 -4 0 -47 37 -97 82 -49 45 -132 120 -184 168 -52 48 -176 160 -275 250 -99 90 -203 185 -231 211 l-51 48 19 58 c13 38 18 72 15 98 l-6 40 117 51 c64 29 120 52 123 53 3 1 20 -15 38 -34z m-416 0 c48 -33 67 -72 67 -138 0 -66 -27 -111 -85 -144 -63 -35 -129 -26 -189 26 -75 66 -61 204 27 260 48 31 131 29 180 -4z m1940 -50 c3 -30 16 -73 28 -95 l23 -40 -40 -43 c-78 -82 -162 -173 -259 -282 -96 -106 -245 -271 -331 -365 -23 -25 -60 -65 -82 -90 -22 -25 -42 -43 -45 -40 -2 3 10 37 29 75 30 66 218 472 325 704 l48 104 68 1 c48 2 80 8 109 24 40 20 94 74 94 93 0 5 6 9 14 9 9 0 15 -18 19 -55z m144 -200 c19 -8 61 -15 93 -15 64 0 54 12 119 -139 23 -51 41 -99 41 -105 0 -7 -14 -25 -31 -42 -43 -40 -69 -99 -69 -159 l0 -50 -188 -69 c-103 -38 -236 -86 -296 -108 -60 -21 -183 -66 -273 -100 -134 -50 -166 -58 -178 -48 -16 13 -20 36 -7 42 4 2 48 48 97 103 50 55 98 109 108 120 10 11 134 147 275 303 141 155 260 282 265 282 4 0 24 -7 44 -15z m-2002 -85 c3 -5 97 -91 208 -192 111 -100 207 -187 213 -193 6 -5 75 -68 154 -140 221 -200 226 -205 213 -205 -6 0 -54 20 -105 44 -51 24 -176 82 -278 129 -102 47 -252 117 -335 155 l-150 70 -5 73 c-7 88 -33 141 -91 182 -21 16 -37 33 -34 38 4 5 25 9 48 9 23 0 60 9 82 19 45 22 71 25 80 11z m-234 -123 c73 -49 102 -144 64 -217 -59 -113 -225 -116 -290 -6 -45 77 -22 172 54 223 47 32 125 32 172 0z m2689 -109 c63 -32 90 -77 90 -147 0 -100 -64 -161 -168 -161 -63 0 -108 29 -140 92 -32 62 -25 123 20 174 57 65 124 79 198 42z m-1783 -523 c95 -43 112 -53 113 -73 0 -12 -6 -25 -12 -27 -7 -2 -123 -9 -258 -15 -312 -14 -594 -27 -753 -36 l-125 -7 -7 31 c-3 17 -26 54 -51 81 -24 27 -44 54 -44 60 0 6 21 65 47 131 l46 120 56 0 c63 0 119 23 169 68 l32 30 338 -157 c185 -86 387 -179 449 -206z m1548 221 c53 -55 129 -81 206 -71 27 4 49 4 49 0 0 -4 -16 -25 -35 -47 -19 -23 -40 -59 -48 -82 l-14 -41 -114 -7 c-63 -4 -215 -11 -339 -17 -124 -6 -321 -16 -439 -22 -117 -5 -215 -8 -217 -6 -4 4 63 30 361 138 94 35 251 93 350 130 99 37 184 68 188 68 5 1 28 -19 52 -43z m459 -120 c81 -34 118 -143 77 -223 -32 -63 -73 -88 -148 -88 -66 0 -98 16 -136 67 -24 32 -33 105 -18 150 29 87 136 131 225 94z m-1594 -78 c56 -29 90 -84 90 -149 0 -54 -28 -101 -80 -137 -29 -20 -44 -23 -93 -20 -90 7 -146 60 -154 145 -4 37 0 60 15 89 25 48 40 62 89 80 54 19 83 17 133 -8z m-1582 -85 c98 -72 97 -204 0 -276 -42 -31 -123 -33 -173 -5 -47 28 -85 89 -85 138 0 71 54 146 115 163 39 11 116 0 143 -20z m2891 -69 c7 -20 33 -57 57 -81 24 -24 44 -46 44 -49 0 -3 -21 -59 -46 -125 l-47 -119 -51 0 c-60 0 -128 -28 -173 -72 l-32 -31 -318 148 c-175 81 -378 174 -450 208 -116 52 -133 63 -133 83 0 21 5 24 43 24 44 0 576 25 812 39 77 4 172 9 210 10 l71 1 13 -36z m-1624 -42 c-10 -9 -68 -31 -280 -107 -66 -24 -174 -63 -240 -88 -66 -24 -185 -68 -264 -97 l-144 -53 -30 37 c-46 57 -99 80 -184 79 -42 0 -73 3 -73 9 0 5 16 28 35 51 19 22 38 56 41 76 4 20 11 39 16 42 5 3 42 7 81 8 40 1 160 6 267 11 107 5 301 14 430 20 129 6 244 12 255 14 44 7 99 6 90 -2z m46 -83 c11 -22 8 -27 -101 -139 -8 -8 -55 -60 -105 -115 -49 -55 -92 -102 -95 -105 -3 -3 -68 -75 -145 -160 -77 -85 -158 -175 -181 -200 -23 -25 -58 -63 -77 -84 l-34 -40 -58 18 c-35 12 -73 17 -100 13 l-44 -4 -56 124 -56 124 31 29 c42 39 70 105 70 166 l0 52 113 40 c61 22 168 62 237 87 69 26 154 57 190 70 67 24 288 106 350 130 47 18 48 18 61 -6z m571 -70 c84 -38 173 -80 198 -91 25 -11 72 -33 105 -48 33 -15 107 -50 165 -77 58 -27 141 -66 186 -87 l81 -38 -5 -51 c-6 -73 31 -156 87 -194 22 -15 40 -33 41 -39 0 -6 -24 -14 -54 -17 -29 -3 -73 -15 -96 -27 l-42 -22 -27 24 c-14 13 -80 73 -146 134 -66 60 -148 134 -182 164 -417 374 -488 440 -469 440 3 0 73 -32 158 -71z m-140 -44 c55 -52 154 -142 303 -276 22 -20 99 -89 170 -155 72 -65 167 -152 212 -192 l82 -74 -20 -36 c-13 -25 -19 -57 -19 -102 l-1 -65 -117 -53 c-64 -28 -121 -52 -127 -52 -5 1 -19 15 -30 33 -28 45 -114 87 -179 87 l-51 0 -21 63 c-24 69 -42 116 -204 555 -92 249 -109 306 -99 318 18 22 31 15 101 -51z m-487 -221 c-64 -137 -154 -332 -201 -434 l-86 -186 -68 0 c-58 0 -75 -4 -116 -30 -27 -16 -58 -44 -69 -62 -28 -44 -41 -40 -48 16 -3 27 -16 69 -28 94 l-22 46 79 89 c75 85 380 421 578 637 49 54 92 94 93 89 2 -5 -49 -122 -112 -259z m212 230 c29 -8 27 14 63 -774 5 -124 12 -252 14 -286 l5 -61 -39 -13 c-21 -7 -58 -32 -82 -56 l-44 -43 -125 48 -124 49 -6 58 c-8 74 -28 122 -68 159 -17 17 -31 35 -31 41 0 6 20 53 44 105 24 52 58 126 76 164 40 86 210 455 252 548 17 37 34 67 37 67 3 0 16 -3 28 -6z m159 -149 c51 -140 95 -259 193 -525 84 -227 90 -246 73 -257 -73 -53 -105 -119 -101 -207 2 -36 1 -68 -3 -71 -4 -4 -19 5 -35 20 -32 30 -95 65 -117 65 -26 0 -21 -58 -61 748 -8 161 -15 314 -14 340 l1 47 15 -35 c9 -19 30 -75 49 -125z m-1398 19 c70 -52 89 -158 41 -229 -91 -134 -299 -72 -299 89 0 62 35 125 84 150 43 22 137 16 174 -10z m2711 -111 c89 -67 85 -208 -9 -270 -41 -28 -119 -31 -170 -5 -101 50 -110 215 -15 278 55 36 143 35 194 -3z m-149 -458 c65 -48 88 -133 56 -209 -28 -67 -115 -108 -186 -87 -146 44 -173 224 -46 302 48 29 133 26 176 -6z m-2276 -90 c102 -49 116 -211 24 -276 -159 -114 -356 95 -224 238 55 60 125 73 200 38z m483 -155 c42 -30 63 -76 63 -135 0 -82 -55 -148 -137 -161 -182 -29 -265 226 -101 310 47 24 134 17 175 -14z m1103 -35 c52 -27 75 -72 75 -145 0 -75 -24 -118 -81 -145 -41 -19 -117 -19 -154 0 -39 20 -80 75 -86 117 -13 76 40 166 111 188 37 11 97 4 135 -15z m-430 -228 c115 -60 111 -230 -6 -287 -112 -55 -237 21 -237 144 0 129 128 204 243 143z" style="fill: rgb(0, 101, 183);"/>
    <path d="M8660 1535 l0 -245 25 0 25 0 0 245 0 245 -25 0 -25 0 0 -245z" style="fill: rgb(0, 101, 183);"/>
    <path d="M12640 1704 c0 -69 -2 -75 -17 -69 -111 45 -203 -32 -203 -169 0 -79 17 -132 53 -162 35 -30 80 -31 125 -4 39 24 42 24 42 5 0 -9 9 -15 25 -15 l25 0 0 245 0 245 -25 0 c-24 0 -25 -2 -25 -76z m-25 -114 l26 -10 -3 -106 -3 -107 -37 -19 c-79 -41 -128 1 -128 112 0 115 55 164 145 130z" style="fill: rgb(0, 101, 183);"/>
    <path d="M13300 1704 c0 -68 -2 -75 -17 -69 -71 28 -127 9 -170 -57 -24 -35 -28 -51 -28 -117 0 -62 4 -84 24 -117 37 -66 97 -82 159 -44 26 16 32 17 32 5 0 -9 10 -15 25 -15 l25 0 0 245 0 245 -25 0 c-24 0 -25 -2 -25 -76z m-26 -114 c26 -9 26 -11 26 -117 0 -119 -2 -123 -68 -138 -69 -15 -111 55 -97 158 12 85 68 124 139 97z" style="fill: rgb(0, 101, 183);"/>
    <path d="M10745 1752 c-54 -26 -76 -53 -82 -101 -11 -81 33 -132 128 -151 101 -21 129 -40 129 -88 0 -30 -37 -70 -71 -77 -46 -10 -113 3 -153 30 l-36 24 0 -39 c0 -39 1 -39 52 -55 107 -31 191 -12 235 54 24 36 31 98 13 131 -17 32 -67 60 -127 71 -79 15 -110 33 -118 68 -7 35 7 66 37 82 35 19 112 14 158 -10 22 -11 42 -21 44 -21 2 0 3 14 4 31 1 26 -5 33 -33 45 -59 24 -135 27 -180 6z" style="fill: rgb(0, 101, 183);"/>
    <path d="M7022 1733 c3 -27 5 -28 76 -31 l72 -3 0 -204 0 -205 25 0 25 0 0 205 0 205 75 0 75 0 0 30 0 30 -176 0 -175 0 3 -27z" style="fill: rgb(0, 101, 183);"/>
    <path d="M7419 1627 c-54 -35 -81 -98 -77 -179 4 -72 20 -103 70 -141 61 -45 198 -26 198 27 0 31 2 30 -43 11 -47 -19 -97 -19 -125 1 -26 18 -52 65 -52 94 0 19 6 20 115 20 l115 0 0 37 c0 118 -111 190 -201 130z m130 -53 c12 -15 21 -37 21 -50 0 -23 -2 -24 -90 -24 -94 0 -99 3 -79 43 24 45 41 57 85 57 34 0 47 -5 63 -26z" style="fill: rgb(0, 101, 183);"/>
    <path d="M7773 1639 c-115 -34 -139 -255 -36 -333 35 -26 100 -32 146 -13 31 14 37 21 37 46 l0 30 -35 -21 c-43 -24 -111 -20 -132 9 -42 57 -38 169 8 215 33 33 69 36 122 9 l37 -19 0 29 c0 17 -7 32 -19 38 -29 16 -93 21 -128 10z" style="fill: rgb(0, 101, 183);"/>
    <path d="M8077 1630 c-44 -24 -47 -24 -47 -5 0 9 -9 15 -25 15 l-25 0 0 -175 0 -175 25 0 24 0 3 131 c3 128 4 132 28 150 41 31 84 35 109 10 19 -19 21 -32 21 -156 l0 -135 25 0 25 0 0 134 c0 150 -10 190 -51 211 -38 20 -67 19 -112 -5z" style="fill: rgb(0, 101, 183);"/>
    <path d="M8399 1639 c-15 -6 -40 -29 -55 -51 -26 -37 -29 -50 -29 -122 0 -68 4 -87 23 -119 32 -50 73 -71 129 -64 80 9 123 73 123 184 0 135 -84 211 -191 172z m111 -64 c42 -45 40 -185 -2 -225 -32 -30 -91 -27 -116 5 -42 53 -40 178 3 221 33 33 84 32 115 -1z" style="fill: rgb(0, 101, 183);"/>
    <path d="M8880 1643 c-61 -22 -108 -127 -95 -211 17 -111 78 -165 169 -148 72 14 110 78 110 182 -1 117 -55 186 -143 183 -14 0 -33 -3 -41 -6z m99 -60 c46 -38 46 -198 0 -235 -21 -18 -64 -23 -94 -12 -60 24 -63 233 -3 257 28 12 77 6 97 -10z" style="fill: rgb(0, 101, 183);"/>
    <path d="M9203 1634 c-117 -59 -105 -312 16 -339 25 -5 57 4 114 33 10 5 9 -52 -3 -82 -12 -32 -71 -50 -120 -36 -51 15 -60 13 -60 -15 0 -51 132 -57 190 -8 42 35 50 77 50 276 l0 177 -37 -1 c-21 0 -56 2 -78 5 -28 5 -50 2 -72 -10z m111 -44 c26 -9 26 -11 26 -109 0 -92 -2 -101 -22 -115 -31 -22 -101 -21 -121 2 -9 10 -20 39 -23 64 -17 124 46 194 140 158z" style="fill: rgb(0, 101, 183);"/>
    <path d="M9655 1641 c-24 -5 -31 -12 -33 -35 -3 -26 -1 -28 20 -22 89 27 158 11 158 -37 0 -21 -7 -24 -74 -35 -103 -18 -146 -65 -130 -146 14 -79 88 -108 167 -66 31 17 37 17 37 5 0 -9 9 -15 25 -15 l25 0 0 138 c0 89 -5 146 -13 162 -24 48 -98 69 -182 51z m145 -225 c0 -51 -2 -54 -34 -70 -60 -28 -109 -17 -120 28 -14 57 28 94 112 95 l42 1 0 -54z" style="fill: rgb(0, 101, 183);"/>
    <path d="M11120 1639 c-57 -23 -90 -89 -90 -181 0 -120 63 -183 171 -175 74 6 99 20 99 56 l0 29 -37 -19 c-71 -36 -151 -17 -172 42 -24 69 -23 69 103 69 l114 0 -5 48 c-2 26 -11 61 -20 79 -26 53 -101 77 -163 52z m112 -56 c9 -10 19 -33 23 -50 l7 -33 -91 0 c-83 0 -91 2 -91 19 0 11 12 33 26 50 21 26 33 31 68 31 28 0 48 -6 58 -17z" style="fill: rgb(0, 101, 183);"/>
    <path d="M11432 1629 c-48 -31 -72 -86 -72 -161 0 -90 30 -148 87 -168 39 -13 45 -13 80 5 21 11 41 21 46 23 11 5 9 -40 -4 -76 -13 -39 -66 -57 -119 -42 -51 15 -60 13 -60 -15 0 -53 141 -56 197 -4 33 32 43 95 43 279 l0 170 -37 -1 c-21 0 -58 2 -83 6 -36 5 -51 2 -78 -16z m122 -39 c26 -9 26 -11 26 -109 0 -94 -1 -99 -25 -115 -34 -23 -98 -21 -120 4 -9 10 -20 39 -22 64 -15 126 46 192 141 156z" style="fill: rgb(0, 101, 183);"/>
    <path d="M12820 1641 c-29 -5 -36 -11 -38 -35 -3 -26 -1 -28 20 -22 65 18 118 19 138 1 27 -24 27 -65 0 -65 -50 0 -124 -24 -153 -50 -27 -24 -31 -34 -31 -80 0 -47 4 -56 32 -81 38 -34 81 -38 134 -10 30 15 38 16 42 5 3 -8 15 -14 26 -14 19 0 20 6 20 148 0 141 -1 150 -22 169 -47 43 -81 50 -168 34z m140 -225 c0 -51 -2 -54 -34 -70 -70 -33 -120 -13 -120 49 0 49 36 72 117 74 l37 1 0 -54z" style="fill: rgb(0, 101, 183);"/>
    <path d="M9480 1466 l0 -176 25 0 25 0 -2 173 c-3 170 -3 172 -25 175 l-23 3 0 -175z" style="fill: rgb(0, 101, 183);"/>
    <path d="M10120 1625 c0 -8 11 -43 24 -77 13 -35 39 -103 57 -152 l33 -89 -21 -56 c-11 -31 -24 -64 -28 -73 -6 -14 -2 -18 18 -18 23 0 29 10 67 105 22 58 58 154 79 213 22 59 44 120 50 135 10 27 10 28 -15 25 -20 -2 -30 -12 -40 -38 -7 -19 -28 -78 -47 -129 l-35 -95 -14 35 c-8 18 -30 78 -49 131 -29 85 -37 98 -56 98 -14 0 -23 -6 -23 -15z" style="fill: rgb(0, 101, 183);"/>
    <path d="M11717 1633 c-10 -10 -8 -222 3 -268 18 -77 89 -107 158 -65 39 24 42 24 42 5 0 -9 9 -15 25 -15 l25 0 0 175 0 175 -25 0 -25 0 0 -134 c0 -132 0 -134 -25 -150 -42 -27 -78 -30 -105 -8 -24 19 -25 26 -28 156 -3 122 -5 136 -21 136 -10 0 -21 -3 -24 -7z" style="fill: rgb(0, 101, 183);"/>
    <path d="M12060 1465 l0 -175 25 0 25 0 0 124 c0 123 0 125 26 145 18 14 41 21 70 21 42 0 44 1 44 30 0 27 -3 30 -33 30 -18 0 -49 -11 -70 -25 l-37 -26 0 26 c0 20 -5 25 -25 25 l-25 0 0 -175z" style="fill: rgb(0, 101, 183);"/>
    <path d="M12300 1465 l0 -175 25 0 25 0 0 175 0 175 -25 0 -25 0 0 -175z" style="fill: rgb(0, 101, 183);"/>
  </g>
</svg>