<?xml version="1.0" encoding="utf-8"?>
<svg viewBox="0 0 468 512" xmlns="http://www.w3.org/2000/svg">
  <g transform="matrix(0.1, 0, 0, -0.1, 0, 512)" fill="#000000" stroke="none">
    <path d="M1377 5064 c-4 -4 -45 -8 -92 -9 -87 -2 -125 -18 -125 -52 0 -7 -7 -16 -15 -19 -9 -4 -15 -19 -15 -38 0 -44 -43 -90 -71 -76 -11 6 -24 8 -29 5 -5 -3 -19 -1 -31 6 -18 9 -26 7 -49 -10 -25 -18 -29 -19 -41 -5 -9 12 -24 15 -51 11 -58 -8 -78 1 -78 34 0 31 -23 49 -64 49 -25 0 -25 -1 -20 -62 5 -60 3 -65 -31 -111 -20 -26 -62 -67 -94 -90 -88 -63 -116 -143 -71 -200 11 -14 20 -32 20 -40 0 -8 6 -20 14 -26 7 -6 16 -25 19 -40 4 -16 12 -35 20 -42 9 -9 12 -30 9 -70 -4 -51 -1 -60 21 -83 15 -15 42 -27 71 -31 25 -4 46 -11 46 -16 0 -11 -85 -7 -96 4 -4 4 -32 7 -61 7 -54 0 -55 0 -49 -27 8 -39 8 -121 0 -165 -5 -31 -3 -37 15 -43 11 -3 27 -19 35 -36 15 -31 7 -39 -14 -14 -17 21 -40 19 -40 -4 0 -32 -11 -51 -29 -51 -29 0 -71 -52 -71 -88 0 -27 -6 -37 -34 -53 -19 -11 -37 -27 -40 -35 -6 -17 10 -54 23 -54 4 0 20 -11 35 -25 32 -30 34 -77 6 -158 -11 -31 -20 -64 -20 -72 0 -24 -46 -65 -74 -65 -26 0 -76 -50 -76 -76 0 -8 10 -28 22 -44 29 -40 36 -127 14 -174 -24 -50 -20 -68 24 -114 52 -54 53 -87 4 -158 -49 -70 -53 -117 -21 -214 14 -41 29 -106 32 -145 8 -78 15 -95 56 -143 32 -36 35 -59 17 -130 -12 -49 -46 -99 -82 -119 -11 -7 -51 -12 -88 -13 -86 0 -90 -6 -75 -123 l10 -88 -26 -25 c-31 -28 -35 -68 -11 -95 14 -16 13 -22 -11 -70 -22 -42 -26 -61 -21 -93 3 -23 8 -90 10 -151 4 -145 24 -207 76 -243 22 -15 39 -32 40 -39 0 -7 13 -25 28 -41 25 -26 39 -51 55 -103 4 -11 22 -19 51 -23 37 -6 49 -13 61 -36 9 -17 29 -40 46 -52 42 -31 102 -114 123 -170 9 -25 22 -51 29 -56 13 -11 128 8 201 32 35 12 45 12 69 -1 25 -13 31 -13 53 1 20 14 43 15 159 7 149 -9 158 -13 196 -81 11 -20 40 -48 65 -64 24 -15 49 -37 55 -47 14 -27 78 -57 167 -80 42 -10 90 -29 105 -40 19 -14 41 -20 65 -18 20 1 47 -1 59 -5 18 -6 21 -12 16 -37 -3 -18 -1 -29 5 -29 6 0 27 -14 47 -31 30 -27 41 -31 78 -27 29 3 45 0 53 -10 17 -24 174 17 220 57 19 17 42 31 51 31 8 0 30 8 47 19 47 28 131 34 202 14 32 -9 89 -18 125 -18 77 -2 82 -4 115 -57 l25 -40 93 7 c89 7 93 6 99 -14 3 -14 10 -19 20 -15 23 8 57 -14 57 -36 0 -26 6 -25 42 5 16 14 38 25 47 25 10 0 125 52 255 115 213 103 237 117 234 137 -2 12 -13 27 -24 33 -22 11 -22 11 7 43 16 18 30 32 31 32 2 0 3 -26 4 -58 l0 -57 45 4 c54 4 59 7 60 34 2 33 160 175 244 217 66 34 70 38 71 70 0 19 6 53 12 75 12 42 57 115 70 115 17 0 132 124 132 142 0 11 5 28 11 40 6 11 15 47 19 80 7 50 17 71 60 127 49 64 50 66 28 71 -16 4 -24 14 -26 34 -3 24 -7 27 -30 22 -42 -9 -50 3 -53 79 -1 44 -9 84 -20 107 -21 42 -24 80 -8 109 8 16 7 25 -6 39 -15 16 -15 21 -1 48 15 30 7 52 -20 52 -6 0 -17 14 -24 30 -11 27 -11 32 5 44 13 9 16 20 11 39 -7 31 1 57 20 57 8 0 14 4 14 9 0 5 21 34 46 65 l46 55 57 -3 c65 -5 77 0 59 21 -10 12 -9 17 5 28 9 7 17 15 17 19 0 4 7 15 16 23 12 12 14 27 9 62 -6 44 -5 47 22 59 60 27 71 37 81 71 6 19 9 38 6 43 -9 14 -82 48 -104 48 -27 0 -120 47 -120 61 0 6 -28 39 -62 73 -92 92 -112 123 -113 170 -2 45 -21 113 -39 136 -15 19 -44 88 -48 115 -2 13 -12 21 -28 23 -27 4 -80 48 -80 68 0 15 -71 64 -93 64 -9 0 -27 11 -41 25 -29 29 -52 32 -78 8 -17 -15 -19 -15 -31 -1 -6 9 -47 44 -89 77 -43 34 -88 77 -100 95 -13 19 -35 42 -50 51 -24 14 -28 23 -28 60 0 42 -5 49 -65 110 -36 36 -72 65 -81 65 -8 0 -25 5 -37 12 -12 6 -43 10 -69 9 -54 -2 -81 10 -118 49 -14 15 -30 29 -35 31 -6 2 -28 25 -49 52 -45 55 -63 59 -77 17 -13 -37 -19 -37 -49 -4 -14 14 -43 33 -66 44 -23 10 -44 26 -47 36 -3 11 -8 31 -11 46 -4 19 -15 30 -32 34 -23 6 -25 10 -19 40 5 29 1 39 -35 77 -22 25 -40 47 -40 51 0 13 -107 112 -142 131 -46 24 -59 14 -67 -47 -6 -41 -7 -43 -37 -40 -29 3 -34 -1 -54 -42 -12 -25 -28 -46 -35 -46 -7 0 -22 -11 -32 -24 -18 -25 -35 -29 -113 -27 l-45 1 3 78 c2 45 10 87 19 101 25 38 9 85 -43 127 -24 20 -47 47 -50 59 -3 13 -19 35 -35 51 -16 15 -29 32 -29 37 0 12 -48 69 -70 82 -72 43 -130 88 -135 104 -3 11 -34 40 -68 64 -34 25 -69 56 -76 71 -9 16 -23 26 -37 26 -17 0 -21 4 -17 20 7 27 -9 44 -79 82 -35 20 -61 41 -64 54 -7 28 -81 64 -97 48z m48 -24 c14 -5 30 -21 35 -34 5 -15 29 -35 57 -50 60 -30 84 -56 81 -87 -2 -18 3 -25 22 -29 25 -5 73 -45 174 -145 28 -28 76 -67 106 -87 30 -21 65 -50 78 -65 12 -15 38 -48 57 -71 19 -24 35 -49 35 -56 0 -7 23 -33 50 -58 38 -35 50 -52 50 -75 0 -16 -4 -33 -9 -38 -5 -6 -12 -41 -15 -79 -3 -38 -7 -71 -10 -73 -2 -3 -33 25 -69 61 -54 55 -71 66 -98 66 -19 0 -65 11 -104 25 -62 21 -73 22 -92 10 -12 -8 -24 -22 -28 -32 -6 -20 -84 -73 -107 -73 -7 0 -29 -13 -49 -29 -39 -33 -67 -36 -223 -25 -69 5 -82 3 -107 -15 -26 -19 -30 -20 -72 -5 -24 8 -59 30 -77 49 -19 19 -40 35 -47 35 -14 0 -145 65 -185 92 -14 10 -40 18 -58 18 -23 0 -40 9 -62 33 -63 66 -145 106 -163 77 -11 -18 -23 -10 -30 20 -9 42 -42 107 -57 112 -17 6 -13 82 5 109 8 11 41 42 73 68 32 25 76 69 97 96 36 47 38 53 34 108 -3 31 -1 57 3 57 25 0 40 -15 40 -40 0 -15 6 -32 13 -37 18 -15 75 -24 82 -13 4 6 17 4 35 -6 28 -17 39 -15 72 8 14 10 20 9 36 -5 14 -13 21 -14 30 -5 9 9 15 9 24 0 17 -17 22 -15 57 14 23 19 31 34 31 60 0 23 6 37 20 44 11 6 20 19 20 29 0 26 23 34 113 36 42 1 80 5 84 8 9 9 17 9 48 -3z m-736 -694 c25 -19 56 -46 68 -60 16 -18 33 -26 56 -26 18 0 41 -6 52 -14 40 -27 175 -96 188 -96 8 0 29 -16 48 -35 21 -21 55 -42 86 -52 50 -16 54 -16 72 1 23 21 164 35 175 18 5 -8 28 -10 69 -6 46 5 69 13 88 31 14 13 42 28 62 34 22 6 57 30 87 61 l50 51 73 -21 c39 -12 89 -24 109 -28 28 -4 52 -22 107 -79 l71 -72 -21 -61 c-20 -59 -21 -60 -72 -74 -45 -13 -52 -18 -55 -42 -2 -15 2 -33 8 -41 8 -10 8 -19 1 -34 -6 -11 -9 -26 -6 -33 3 -8 -13 -32 -37 -56 -79 -77 -88 -89 -88 -114 0 -14 -7 -31 -15 -38 -17 -14 -20 -41 -5 -56 5 -5 13 -37 16 -70 l7 -61 -32 -6 c-18 -4 -31 -13 -31 -22 0 -8 -11 -25 -25 -37 -14 -12 -25 -27 -25 -34 0 -6 -7 -14 -15 -18 -17 -6 -135 20 -182 40 -17 8 -42 14 -56 14 -14 0 -28 4 -31 9 -6 10 -205 9 -221 -1 -17 -10 -126 10 -144 26 -9 8 -36 19 -61 25 -30 7 -54 20 -71 40 -19 23 -34 31 -58 31 -19 0 -50 12 -74 28 -54 37 -90 50 -157 60 -51 7 -56 10 -72 44 -12 25 -32 45 -58 58 -49 25 -71 25 -102 1 -16 -13 -29 -17 -39 -11 -9 6 -22 4 -38 -6 -19 -13 -25 -14 -32 -3 -14 22 -11 29 25 50 28 16 36 28 41 62 8 47 29 77 55 77 23 0 40 20 40 47 0 26 15 31 24 8 6 -17 32 -20 41 -5 7 12 -13 80 -24 80 -4 0 -15 6 -25 13 -16 12 -17 17 -6 38 13 23 15 115 4 152 -4 14 1 17 34 17 23 0 45 -6 52 -15 12 -15 40 -17 93 -8 51 9 21 53 -36 53 -13 0 -36 9 -51 21 -28 22 -32 46 -20 133 8 56 20 58 83 12z m1871 -97 c27 -17 50 -34 50 -38 0 -7 18 -29 101 -119 20 -22 30 -42 29 -60 -3 -43 -1 -48 22 -59 14 -6 28 -27 37 -58 14 -42 21 -50 56 -62 22 -7 47 -21 55 -32 9 -10 25 -23 37 -29 22 -12 34 -5 46 31 9 26 18 21 61 -33 22 -28 43 -50 48 -50 4 0 18 -12 31 -26 33 -38 70 -54 124 -53 82 1 122 -10 137 -40 8 -14 32 -39 55 -56 37 -27 41 -34 41 -76 0 -25 -7 -60 -16 -78 -11 -23 -14 -45 -9 -79 5 -38 1 -60 -20 -112 -15 -36 -31 -69 -36 -74 -14 -15 -11 -36 6 -36 20 0 19 -34 0 -50 -9 -7 -13 -20 -10 -28 14 -37 -68 -61 -83 -24 -11 28 -101 141 -162 203 -48 49 -61 57 -104 63 -26 3 -68 13 -92 21 -24 8 -65 13 -91 11 -27 -2 -72 3 -102 11 -37 11 -71 13 -105 8 -28 -4 -62 -6 -76 -4 -14 1 -39 2 -57 2 -43 1 -54 25 -57 125 -3 91 -11 106 -69 129 -42 17 -67 57 -67 110 -1 47 -23 72 -89 103 -35 17 -81 44 -101 60 -45 35 -82 38 -109 8 -18 -19 -21 -19 -27 -5 -11 30 3 44 55 57 48 11 51 14 62 53 18 71 33 86 76 81 59 -6 111 5 118 25 3 10 16 23 30 29 13 6 31 27 39 47 13 30 19 35 49 35 34 0 35 1 41 50 4 28 11 50 16 50 5 0 32 -14 60 -31z m-1983 -636 c13 -9 32 -32 41 -51 16 -34 21 -36 91 -48 52 -9 90 -23 131 -48 32 -20 70 -36 85 -36 17 0 37 -11 54 -29 15 -16 47 -35 72 -42 24 -7 51 -19 60 -26 19 -16 145 -37 161 -27 22 14 192 11 213 -3 11 -7 31 -13 45 -13 14 -1 36 -7 50 -15 14 -8 39 -14 57 -15 17 0 44 -5 59 -10 55 -21 80 -4 132 87 15 27 53 31 76 7 9 -8 16 -32 16 -53 0 -22 6 -44 15 -51 20 -17 19 -37 -4 -49 -13 -8 -20 -26 -24 -75 -3 -36 -13 -78 -20 -93 -8 -15 -18 -48 -22 -73 -11 -67 -32 -105 -76 -136 -45 -31 -82 -88 -99 -151 -6 -24 -14 -43 -18 -43 -4 0 -27 16 -51 35 -24 19 -44 35 -45 36 -1 0 -46 2 -101 5 -72 4 -111 11 -138 25 -44 22 -73 24 -107 4 -14 -8 -37 -14 -53 -15 -15 0 -45 -13 -67 -29 -36 -26 -44 -28 -70 -18 -24 9 -35 9 -51 -1 -13 -9 -35 -11 -58 -7 -30 5 -41 2 -56 -14 -10 -12 -24 -21 -31 -21 -7 0 -15 -9 -19 -19 -10 -32 -34 -45 -109 -56 -63 -9 -73 -14 -84 -38 -11 -23 -19 -27 -40 -23 -15 3 -53 8 -84 12 -44 5 -59 11 -63 25 -4 11 -10 19 -15 19 -4 0 -21 13 -37 30 -23 25 -36 30 -75 30 -32 0 -48 4 -48 13 1 22 37 92 59 111 15 13 21 31 21 59 0 33 -7 48 -40 83 -44 48 -47 59 -25 111 8 19 15 54 15 77 0 42 -29 118 -49 130 -22 14 24 61 73 74 52 13 52 14 92 147 30 102 30 126 -2 164 -22 26 -23 32 -10 37 9 3 23 3 32 0 9 -3 27 3 42 15 28 22 56 20 99 -8z m3012 -262 c36 -38 96 -94 133 -125 l66 -55 25 19 25 20 31 -26 c17 -14 46 -30 66 -35 19 -6 43 -21 52 -36 34 -49 83 -93 103 -93 11 0 22 -6 24 -12 23 -83 32 -106 46 -123 24 -28 40 -81 40 -131 0 -35 7 -51 45 -97 25 -31 60 -68 78 -84 19 -15 42 -40 52 -56 19 -29 103 -77 138 -78 25 -1 80 -30 78 -42 0 -4 -1 -16 -1 -26 0 -36 -141 -100 -178 -82 -49 24 -99 30 -238 28 l-151 -2 -37 33 c-41 36 -70 40 -105 16 -17 -12 -22 -24 -19 -45 5 -33 -7 -37 -41 -13 -13 9 -39 21 -60 26 -20 5 -54 14 -76 19 -22 6 -44 14 -49 20 -16 15 -45 10 -66 -11 -14 -14 -33 -20 -65 -20 -34 0 -47 -5 -55 -20 -7 -14 -17 -19 -29 -15 -13 4 -24 -3 -35 -19 -14 -22 -19 -24 -45 -15 -21 7 -36 7 -50 0 -11 -6 -37 -11 -58 -11 -22 0 -53 -10 -74 -23 -20 -12 -50 -31 -69 -42 -71 -43 -90 -64 -80 -89 12 -32 6 -36 -57 -36 -46 0 -60 5 -95 33 -90 71 -98 82 -98 134 0 26 -5 55 -10 63 -6 10 -4 20 6 32 14 14 14 22 3 52 -11 29 -10 45 1 88 7 29 13 71 12 94 -1 37 1 41 34 53 29 11 41 10 78 -4 35 -13 51 -15 84 -6 37 10 92 59 92 81 0 5 9 12 20 15 11 4 32 17 45 31 13 13 28 24 33 24 15 0 55 97 49 121 -4 14 2 33 19 54 13 17 24 37 24 43 0 15 17 16 25 2 8 -12 114 -2 133 13 7 6 11 20 8 32 -4 14 2 27 14 38 26 22 26 47 0 54 -18 5 -19 7 -5 32 36 65 64 153 55 171 -21 39 -4 100 27 100 9 0 46 -31 82 -69z m-2256 -643 c31 -15 65 -22 127 -25 112 -4 120 -7 171 -49 47 -39 48 -43 28 -139 -6 -27 -20 -65 -30 -83 -10 -18 -19 -48 -19 -66 0 -19 -7 -50 -15 -69 -12 -30 -23 -38 -57 -48 -46 -12 -88 -44 -88 -66 0 -8 -8 -13 -17 -11 -11 2 -22 -6 -28 -20 -7 -15 -17 -22 -32 -20 -25 3 -63 -28 -63 -52 0 -15 -5 -16 -40 -6 -42 11 -69 2 -124 -39 -19 -15 -19 -15 2 -38 l22 -24 -24 -11 c-30 -13 -84 -2 -125 27 -20 15 -38 20 -55 15 -20 -5 -25 -2 -28 18 -2 14 -16 30 -39 42 -36 19 -36 19 -81 -3 -26 -12 -49 -28 -52 -36 -4 -12 -11 -12 -47 0 -23 8 -56 15 -75 15 -18 0 -36 5 -39 10 -11 18 -42 10 -59 -15 -9 -14 -25 -25 -36 -25 -19 0 -22 -4 -24 -40 -1 -11 -11 -14 -44 -12 -47 4 -52 -6 -31 -67 12 -35 7 -50 -13 -34 -8 7 -22 7 -35 2 -19 -7 -23 -16 -23 -49 l0 -40 -38 6 c-37 6 -40 4 -76 -45 -21 -28 -45 -51 -55 -51 -9 0 -27 -7 -39 -16 -44 -30 -39 8 8 66 19 23 19 31 10 108 -14 107 -9 113 76 111 55 -2 68 2 99 25 43 33 60 64 76 143 11 54 11 64 -5 85 -9 12 -27 37 -40 55 -15 20 -27 59 -35 110 -7 43 -20 103 -28 133 -31 112 -31 110 19 110 39 0 49 -6 95 -49 49 -47 57 -50 128 -60 100 -14 95 -15 106 18 9 26 15 29 76 35 78 8 101 19 113 52 5 13 16 24 23 24 8 0 22 9 32 20 14 16 26 19 56 14 25 -4 44 -2 54 6 12 10 21 10 45 0 27 -11 33 -10 72 19 25 18 54 31 72 31 17 1 42 7 56 15 34 19 44 19 93 -7z m1317 -73 c7 -8 18 -15 25 -15 7 0 18 -7 25 -15 7 -8 24 -15 37 -15 25 0 25 -2 19 -52 -3 -29 -9 -70 -12 -91 -4 -22 -1 -50 6 -68 11 -26 10 -31 -5 -43 -16 -12 -17 -17 -6 -45 8 -17 11 -41 8 -53 -10 -37 19 -86 70 -118 26 -17 51 -37 56 -45 6 -11 26 -15 72 -15 67 0 82 -11 43 -31 -13 -6 -39 -26 -58 -44 -129 -120 -116 -111 -139 -96 -19 12 -100 -25 -131 -60 -14 -15 -61 -47 -105 -70 -62 -32 -87 -40 -112 -36 -26 5 -35 2 -44 -15 -18 -33 -94 -61 -146 -53 -55 8 -123 -2 -123 -19 0 -7 -9 -21 -19 -30 -16 -15 -25 -16 -61 -6 -24 6 -53 9 -67 6 -18 -5 -25 -1 -32 17 -11 27 -29 37 -72 37 -17 0 -32 6 -35 15 -13 33 -33 15 -36 -32 l-3 -48 -55 0 -55 0 -5 41 c-5 30 -19 55 -55 97 -42 47 -58 58 -98 67 -26 5 -53 10 -58 10 -6 0 -23 13 -37 28 -22 22 -42 30 -106 41 -74 12 -82 16 -133 63 -29 28 -53 54 -53 58 0 4 19 18 43 30 42 22 45 23 90 7 l47 -16 0 34 c0 36 17 49 55 39 19 -5 24 -1 27 18 2 15 11 24 26 26 12 2 22 11 22 20 1 38 103 79 148 59 17 -8 26 -6 40 6 23 21 101 22 128 3 16 -12 23 -12 39 -2 11 7 52 23 90 36 45 15 88 38 120 65 63 54 184 115 255 130 52 10 56 13 70 52 20 55 25 59 53 41 21 -15 25 -14 52 9 24 22 36 24 78 20 l50 -4 15 38 c16 41 32 48 52 24z m984 -280 c11 -8 34 -15 52 -15 18 0 36 -4 39 -10 3 -5 17 -10 31 -10 13 0 42 -12 64 -26 44 -29 65 -24 55 13 -7 29 18 63 46 63 9 0 35 -15 58 -34 l41 -34 160 2 c88 2 163 -1 166 -5 3 -5 16 -9 29 -9 13 0 27 -5 31 -11 4 -6 20 -8 39 -5 31 6 33 5 42 -31 9 -35 6 -42 -25 -80 -18 -23 -31 -47 -27 -53 4 -6 -15 -10 -53 -10 -53 0 -62 -3 -77 -26 -9 -14 -25 -34 -36 -45 -10 -10 -19 -24 -19 -29 0 -6 -8 -5 -20 2 -25 16 -39 0 -33 -36 6 -29 -39 -80 -70 -81 -62 -3 -65 -5 -77 -40 -7 -21 -18 -35 -28 -35 -9 0 -28 -12 -43 -26 -15 -15 -38 -32 -50 -38 -13 -6 -26 -25 -31 -43 -5 -17 -17 -34 -27 -38 -11 -3 -22 -12 -25 -20 -3 -8 -15 -15 -26 -15 -12 0 -30 -5 -40 -10 -26 -14 -117 41 -126 76 -10 38 -47 41 -94 9 -22 -15 -40 -34 -40 -41 0 -16 -31 -34 -60 -34 -11 0 -40 9 -62 20 -23 11 -59 20 -80 20 -29 0 -47 8 -77 35 -43 39 -85 46 -126 19 -21 -14 -27 -14 -52 -1 -28 15 -63 12 -130 -8 -19 -6 -23 -3 -23 12 0 11 10 28 21 39 20 18 21 26 15 113 -6 96 2 131 29 131 8 0 24 9 36 21 17 17 19 28 14 64 -7 43 -7 44 33 64 22 11 44 25 47 31 12 19 104 60 134 60 16 0 41 4 55 10 17 6 35 6 53 -1 23 -9 30 -7 44 10 10 12 26 21 38 21 11 0 25 9 31 20 8 15 21 20 54 20 30 0 48 6 61 20 21 24 33 25 59 5z m-2309 -486 c60 -10 86 -20 104 -38 15 -14 49 -29 87 -38 56 -13 67 -20 113 -73 37 -43 51 -67 51 -89 0 -19 9 -39 24 -53 16 -16 28 -48 41 -107 10 -48 28 -99 42 -120 21 -30 24 -45 21 -93 -2 -31 -10 -63 -17 -72 -12 -14 -17 -13 -54 7 -70 37 -73 37 -108 11 -19 -13 -50 -29 -71 -34 -24 -7 -48 -24 -68 -50 -36 -46 -47 -47 -158 -26 -82 16 -94 26 -113 96 -6 25 -23 65 -37 89 -23 42 -24 48 -13 106 15 85 14 95 -8 95 -23 0 -71 54 -71 80 0 10 -4 22 -10 25 -5 3 -10 17 -10 30 0 13 -12 35 -27 49 -25 24 -26 27 -12 52 8 15 42 58 75 95 37 39 65 80 69 99 l7 32 32 -30 c25 -25 46 -33 111 -43z m2866 8 c-26 -26 0 -107 35 -107 16 0 19 -16 4 -25 -13 -8 -13 -62 -1 -67 6 -2 6 -21 0 -51 -9 -41 -8 -52 10 -83 16 -27 21 -52 21 -108 0 -80 9 -96 52 -96 21 0 31 -6 38 -24 5 -13 15 -26 22 -29 10 -3 8 -10 -8 -28 -46 -52 -78 -113 -86 -163 -17 -118 -16 -117 -113 -212 -83 -80 -95 -97 -110 -148 -9 -32 -14 -68 -11 -82 6 -22 1 -27 -39 -44 -25 -11 -67 -34 -92 -52 -63 -43 -193 -173 -193 -192 0 -12 -10 -16 -36 -16 -26 0 -35 4 -31 13 3 8 1 20 -3 27 -5 8 -5 22 0 31 7 12 5 21 -5 29 -20 16 -50 8 -49 -13 1 -10 -9 -25 -22 -34 -31 -20 -30 -31 1 -43 48 -18 30 -42 -66 -89 -49 -24 -93 -41 -96 -37 -4 3 0 17 7 31 11 21 11 32 0 66 -12 34 -12 47 0 82 16 49 16 145 1 160 -19 19 -13 64 8 70 22 5 32 65 29 182 -1 39 4 80 10 92 14 26 16 112 3 147 -12 31 1 82 29 108 12 11 20 32 20 49 0 17 9 42 20 56 15 20 19 38 17 91 -2 79 4 92 43 92 18 0 33 7 39 18 17 32 88 102 103 102 9 0 21 7 28 15 7 8 21 15 32 15 11 0 33 11 49 24 15 13 33 26 39 28 7 2 15 19 19 38 5 26 13 36 29 38 12 2 32 17 44 33 12 16 29 29 38 29 21 0 40 20 40 41 0 23 13 31 59 33 22 1 46 10 57 20 13 13 19 15 22 6 2 -6 -1 -17 -7 -23z m-1130 -164 c27 -16 31 -16 58 0 39 23 74 21 97 -4 27 -30 68 -49 104 -49 16 0 47 -9 67 -20 21 -11 54 -20 75 -20 30 0 42 6 63 34 41 54 115 80 115 41 0 -16 61 -71 89 -80 27 -8 27 -25 1 -25 -11 0 -27 -11 -36 -24 -34 -54 -83 -96 -109 -96 -34 0 -49 -38 -41 -109 4 -44 1 -59 -15 -79 -10 -14 -19 -39 -19 -55 0 -18 -9 -40 -20 -52 -63 -65 -80 -88 -80 -110 0 -32 -25 -55 -60 -55 -36 0 -80 -19 -80 -35 0 -7 -9 -22 -20 -35 -11 -13 -20 -31 -20 -40 0 -10 -7 -23 -15 -30 -8 -7 -15 -28 -15 -47 0 -18 -9 -46 -19 -61 -11 -15 -22 -43 -25 -62 -8 -42 -32 -60 -107 -84 -38 -11 -63 -26 -78 -46 -16 -23 -30 -30 -55 -30 -31 0 -53 -13 -138 -81 -21 -17 -41 -22 -90 -23 -43 -1 -63 3 -64 12 -1 6 -2 16 -3 21 0 4 -15 26 -31 47 -28 35 -30 42 -25 89 6 41 3 55 -13 75 -10 14 -26 56 -36 94 l-17 68 26 34 c14 19 31 47 36 63 6 17 26 42 45 56 23 17 34 34 34 51 0 29 51 109 79 124 12 6 21 24 24 47 2 21 13 59 23 85 18 46 18 49 0 82 -24 46 -18 68 26 89 25 13 40 28 48 51 7 21 26 44 50 60 41 27 43 31 40 81 -1 33 19 50 70 58 14 2 27 5 28 6 2 0 17 -7 33 -16z m397 -620 c13 -125 13 -142 1 -164 -8 -15 -14 -60 -15 -119 -2 -151 -1 -150 -25 -150 -21 0 -21 -3 -15 -66 4 -36 12 -74 18 -84 10 -15 9 -26 -5 -55 -19 -40 -22 -100 -7 -141 8 -19 8 -30 0 -38 -5 -5 -10 -20 -10 -31 0 -17 -23 -33 -122 -83 -68 -33 -136 -64 -153 -67 -16 -4 -38 -14 -48 -23 -16 -14 -19 -14 -33 6 -8 12 -25 22 -37 22 -12 0 -28 9 -35 20 -14 23 -58 26 -129 8 -45 -11 -47 -10 -70 18 -12 16 -34 42 -48 57 -14 15 -25 36 -25 46 0 10 -7 24 -15 31 -8 7 -15 29 -15 49 0 24 -7 42 -20 54 -30 25 -24 37 18 37 62 0 109 19 164 65 41 36 59 45 89 45 30 0 42 6 59 29 11 17 31 33 43 36 28 8 63 23 107 46 29 15 36 25 42 60 4 23 14 49 23 59 8 9 15 35 15 57 0 27 5 43 15 47 8 3 15 16 15 29 0 13 9 32 20 42 11 10 20 24 20 32 0 16 40 33 77 33 32 0 63 26 63 52 0 22 17 58 28 58 4 0 9 -8 10 -17z" style="fill: rgb(0, 101, 183);"/>
  </g>
</svg>